HIERARCHY
ROOT hip
{
  OFFSET 0 0 0
  CHANNELS 6 Xposition Yposition Zposition Zrotation Yrotation Xrotation
  JOINT abdomen
  {
    OFFSET 0 20.6881 -0.73152
    CHANNELS 3 Zrotation Xrotation Yrotation
    JOINT chest
    {
      OFFSET 0 11.7043 -0.48768
      CHANNELS 3 Zrotation Xrotation Yrotation
      JOINT neck
      {
        OFFSET 0 22.1894 -2.19456
        CHANNELS 3 Zrotation Xrotation Yrotation
        JOINT head
        {
          OFFSET -0.24384 7.07133 1.2192
          CHANNELS 3 Zrotation Xrotation Yrotation
          JOINT leftEye
          {
            OFFSET 4.14528 8.04674 8.04672
            CHANNELS 3 Zrotation Xrotation Yrotation
            End Site
            {
              OFFSET 1 0 0
            }
          }
          JOINT rightEye
          {
            OFFSET -3.6576 8.04674 8.04672
            CHANNELS 3 Zrotation Xrotation Yrotation
            End Site
            {
              OFFSET 1 0 0
            }
          }
        }
      }
      JOINT rCollar
      {
        OFFSET -2.68224 19.2634 -4.8768
        CHANNELS 3 Zrotation Xrotation Yrotation
        JOINT rShldr
        {
          OFFSET -8.77824 -1.95073 1.46304
          CHANNELS 3 Zrotation Xrotation Yrotation
          JOINT rForeArm
          {
            OFFSET -28.1742 -1.7115 0.48768
            CHANNELS 3 Zrotation Xrotation Yrotation
            JOINT rHand
            {
              OFFSET -22.5879 0.773209 7.07136
              CHANNELS 3 Zrotation Xrotation Yrotation
              JOINT rThumb1
              {
                OFFSET -1.2192 -0.487915 3.41376
                CHANNELS 3 Zrotation Xrotation Yrotation
                JOINT rThumb2
                {
                  OFFSET -3.37035 -0.52449 3.41376
                  CHANNELS 3 Zrotation Xrotation Yrotation
                  End Site
                  {
                    OFFSET -1.78271 -1.18214 1.43049
                  }
                }
              }
              JOINT rIndex1
              {
                OFFSET -7.75947 0.938293 5.60832
                CHANNELS 3 Zrotation Xrotation Yrotation
                JOINT rIndex2
                {
                  OFFSET -2.54057 -0.884171 1.56538
                  CHANNELS 3 Zrotation Xrotation Yrotation
                  End Site
                  {
                    OFFSET -1.62519 -0.234802 1.16502
                  }
                }
              }
              JOINT rMid1
              {
                OFFSET -8.24714 1.18213 3.41376
                CHANNELS 3 Zrotation Xrotation Yrotation
                JOINT rMid2
                {
                  OFFSET -3.10165 -0.590103 1.0647
                  CHANNELS 3 Zrotation Xrotation Yrotation
                  End Site
                  {
                    OFFSET -2.48547 -0.328903 0.83742
                  }
                }
              }
              JOINT rRing1
              {
                OFFSET -8.82822 0.546677 1.51678
                CHANNELS 3 Zrotation Xrotation Yrotation
                JOINT rRing2
                {
                  OFFSET -2.60934 -0.819778 -0.0198488
                  CHANNELS 3 Zrotation Xrotation Yrotation
                  End Site
                  {
                    OFFSET -2.33842 -0.294052 0.168128
                  }
                }
              }
              JOINT rPinky1
              {
                OFFSET -8.27202 -0.0477905 -0.4584
                CHANNELS 3 Zrotation Xrotation Yrotation
                JOINT rPinky2
                {
                  OFFSET -1.82734 -0.647385 -0.700984
                  CHANNELS 3 Zrotation Xrotation Yrotation
                  End Site
                  {
                    OFFSET -1.69225 -0.51767 -0.607171
                  }
                }
              }
            }
          }
        }
      }
      JOINT lCollar
      {
        OFFSET 2.68224 19.2634 -4.8768
        CHANNELS 3 Zrotation Xrotation Yrotation
        JOINT lShldr
        {
          OFFSET 8.77824 -1.95073 1.46304
          CHANNELS 3 Zrotation Xrotation Yrotation
          JOINT lForeArm
          {
            OFFSET 28.1742 -1.7115 0.48768
            CHANNELS 3 Zrotation Xrotation Yrotation
            JOINT lHand
            {
              OFFSET 22.5879 0.773209 7.07136
              CHANNELS 3 Zrotation Xrotation Yrotation
              JOINT lThumb1
              {
                OFFSET 1.2192 -0.487915 3.41376
                CHANNELS 3 Zrotation Xrotation Yrotation
                JOINT lThumb2
                {
                  OFFSET 3.37035 -0.52449 3.41376
                  CHANNELS 3 Zrotation Xrotation Yrotation
                  End Site
                  {
                    OFFSET 1.78271 -1.18214 1.43049
                  }
                }
              }
              JOINT lIndex1
              {
                OFFSET 7.75947 0.938293 5.60832
                CHANNELS 3 Zrotation Xrotation Yrotation
                JOINT lIndex2
                {
                  OFFSET 2.54057 -0.884171 1.56538
                  CHANNELS 3 Zrotation Xrotation Yrotation
                  End Site
                  {
                    OFFSET 1.62519 -0.234802 1.16502
                  }
                }
              }
              JOINT lMid1
              {
                OFFSET 8.24714 1.18213 3.41376
                CHANNELS 3 Zrotation Xrotation Yrotation
                JOINT lMid2
                {
                  OFFSET 3.10165 -0.590103 1.0647
                  CHANNELS 3 Zrotation Xrotation Yrotation
                  End Site
                  {
                    OFFSET 2.48547 -0.328903 0.83742
                  }
                }
              }
              JOINT lRing1
              {
                OFFSET 8.82822 0.546677 1.51678
                CHANNELS 3 Zrotation Xrotation Yrotation
                JOINT lRing2
                {
                  OFFSET 2.60934 -0.819778 -0.0198488
                  CHANNELS 3 Zrotation Xrotation Yrotation
                  End Site
                  {
                    OFFSET 2.33842 -0.294052 0.168128
                  }
                }
              }
              JOINT lPinky1
              {
                OFFSET 8.27202 -0.0477905 -0.4584
                CHANNELS 3 Zrotation Xrotation Yrotation
                JOINT lPinky2
                {
                  OFFSET 1.82734 -0.647385 -0.700984
                  CHANNELS 3 Zrotation Xrotation Yrotation
                  End Site
                  {
                    OFFSET 1.69225 -0.51767 -0.607171
                  }
                }
              }
            }
          }
        }
      }
    }
  }
  JOINT rButtock
  {
    OFFSET -8.77824 4.35084 1.2192
    CHANNELS 3 Zrotation Xrotation Yrotation
    JOINT rThigh
    {
      OFFSET 0 -1.70687 -2.19456
      CHANNELS 3 Zrotation Xrotation Yrotation
      JOINT rShin
      {
        OFFSET 0 -36.8199 0.73152
        CHANNELS 3 Zrotation Xrotation Yrotation
        JOINT rFoot
        {
          OFFSET 0.73152 -45.1104 -5.12064
          CHANNELS 3 Zrotation Xrotation Yrotation
          End Site
          {
            OFFSET -1.1221 -3.69964 12.103
          }
        }
      }
    }
  }
  JOINT lButtock
  {
    OFFSET 8.77824 4.35084 1.2192
    CHANNELS 3 Zrotation Xrotation Yrotation
    JOINT lThigh
    {
      OFFSET 0 -1.70687 -2.19456
      CHANNELS 3 Zrotation Xrotation Yrotation
      JOINT lShin
      {
        OFFSET 0 -36.8199 0.73152
        CHANNELS 3 Zrotation Xrotation Yrotation
        JOINT lFoot
        {
          OFFSET -0.73152 -45.1104 -5.12064
          CHANNELS 3 Zrotation Xrotation Yrotation
          End Site
          {
            OFFSET 1.1221 -3.69964 12.103
          }
        }
      }
    }
  }
}
MOTION
Frames:	9
Frame Time:	0.00833333
52.5437 85.1388 191.15 0.0 0.0 0.0 0.410589 -0.00336424 0.0117806 0.113459 -0.00539519 0.0196593 -7.52832e-15 -7.95139e-16 -2.48481e-17 -2.25155e-14 3.18055e-15 -1.14922e-16 -0.0 0.0 0.0 -0.0 0.0 0.0 -3.72855e-15 1.86361e-17 1.49089e-16 -7.67883e-14 3.35449e-16 1.98785e-16 -1.3498e-12 4.16255e-13 3.49861e-14 -1.54419e-11 -3.41487e-13 -1.11319e-13 -3.64291e-11 1.60661e-13 -1.65389e-13 -6.29193e-11 2.76708e-13 -2.75118e-13 -3.64253e-11 1.61016e-13 -1.65389e-13 7.73091 5.47488 0.417314 -3.64287e-11 1.6032e-13 -1.52667e-13 2.90554 0.965183 0.102902 -3.64237e-11 1.61214e-13 -1.62208e-13 10.2786 0.731801 0.0259123 -3.64344e-11 1.63003e-13 -1.55847e-13 2.22167 -0.733487 -0.20892 -3.82551e-15 1.86361e-17 -1.49089e-16 -8.06977e-14 2.42269e-16 -1.59028e-15 -1.34995e-12 -3.92003e-13 -2.54444e-14 -1.54464e-11 4.64237e-13 -4.45278e-14 -3.64333e-11 1.57644e-13 -1.62208e-13 -6.29058e-11 2.73528e-13 -2.80684e-13 -3.64392e-11 1.61413e-13 -1.52667e-13 -7.73091 5.47488 -0.417314 -3.64326e-11 1.57239e-13 -1.65389e-13 -2.90554 0.965183 -0.102902 -3.64389e-11 1.58133e-13 -1.61413e-13 -10.2786 0.731801 -0.0259123 -3.64301e-11 1.5863e-13 -1.68569e-13 -2.22167 -0.733487 0.20892 -2.03217e-16 0.0 -3.88251e-19 0.770612 -4.17183 -0.0656818 -0.00265493 2.00555 -0.0182708 -0.461838 2.16687 0.0961019 2.03217e-16 0.0 3.88251e-19 -0.143227 -2.55995 0.0260683 0.00716315 -0.91409 0.0621714 0.453766 3.47457 -0.121224
53.1478 83.538 184.967 179.627 -1.0145 -155.755 -0.948009 -7.76811 -0.27845 0.645212 2.85539 -0.167705 -0.66027 4.08292 -0.861348 2.76267 -13.9163 -1.10085 -0.0 0.0 0.0 -0.0 0.0 0.0 -5.97737e-15 -5.56284e-14 3.01167e-15 23.0633 0.509053 -0.709376 -3.03645 -1.2058 4.91534 0.011162 2.36727 0.331713 1.8359e-11 -3.75248e-10 9.05913e-10 3.91831e-11 -6.51215e-10 1.56528e-09 1.83626e-11 -3.75247e-10 9.05909e-10 7.73091 5.47488 0.417314 1.83587e-11 -3.75248e-10 9.05923e-10 2.90554 0.965183 0.102902 1.83653e-11 -3.75247e-10 9.05915e-10 10.2786 0.731801 0.0259123 1.83551e-11 -3.75246e-10 9.0592e-10 2.22167 -0.733487 -0.20892 -6.07901e-15 -5.56268e-14 2.68282e-15 -21.4836 1.34228 -0.751055 1.69974 -0.560956 -2.83993 -0.0836982 6.42895 -0.883161 6.57427e-10 -3.79899e-11 -7.19955e-10 1.12215e-09 -7.08345e-11 -1.25589e-09 6.57423e-10 -3.79875e-11 -7.19944e-10 -7.73091 5.47488 -0.417314 6.57428e-10 -3.79907e-11 -7.19957e-10 -2.90554 0.965183 -0.102902 6.57422e-10 -3.79905e-11 -7.19955e-10 -10.2786 0.731801 -0.0259123 6.57431e-10 -3.79902e-11 -7.19962e-10 -2.22167 -0.733487 0.20892 -2.03217e-16 0.0 -3.88251e-19 0.533234 -10.9083 1.91189 0.00433224 4.22683 0.0517598 -0.64122 -4.45459 -1.64723 2.03217e-16 0.0 3.88251e-19 0.347195 -9.01279 -2.09879 0.00544129 1.14728 0.0242215 0.50004 1.3821 1.05074
53.2693 83.57 184.488 180.307 -1.8979 -156.883 -2.47235 -15.9664 -0.604927 1.22906 5.87231 -0.367759 -1.21873 8.40481 -1.79259 5.02837 -28.628 -2.51716 -0.0 0.0 0.0 -0.0 0.0 0.0 -1.00674e-14 -1.22793e-13 5.09075e-15 47.4612 1.12132 -1.4516 -6.0416 -2.46166 10.1504 -0.00699014 4.83115 0.678901 8.66266e-11 -8.10498e-10 1.9498e-09 1.65767e-10 -1.40651e-09 3.3688e-09 8.663e-11 -8.10495e-10 1.9498e-09 7.73091 5.47488 0.417314 8.66255e-11 -8.10497e-10 1.94981e-09 2.90554 0.965183 0.102902 8.6634e-11 -8.10496e-10 1.9498e-09 10.2786 0.731801 0.0259123 8.66242e-11 -8.10497e-10 1.94981e-09 2.22167 -0.733487 -0.20892 -1.01721e-14 -1.2279e-13 4.72735e-15 -44.1694 2.74591 -1.57014 3.43903 -1.15058 -5.84775 0.0489075 13.2468 -1.85828 1.46182e-09 -7.8902e-11 -1.5429e-09 2.4962e-09 -1.47406e-10 -2.69156e-09 1.46182e-09 -7.89012e-11 -1.54289e-09 -7.73091 5.47488 -0.417314 1.46182e-09 -7.89033e-11 -1.5429e-09 -2.90554 0.965183 -0.102902 1.46182e-09 -7.89039e-11 -1.5429e-09 -10.2786 0.731801 -0.0259123 1.46183e-09 -7.89039e-11 -1.54291e-09 -2.22167 -0.733487 0.20892 -2.03217e-16 0.0 -3.88251e-19 0.814172 -18.0016 4.12193 0.00581221 6.57663 0.126748 -1.27783 -11.5136 -3.5412 2.03217e-16 0.0 3.88251e-19 0.328707 -15.8037 -4.45729 0.00660525 3.33019 -0.015973 0.641598 -0.829052 2.28224
53.2928 83.5705 184.444 180.393 -1.6191 -156.708 -3.91884 -23.2952 -0.926804 1.76538 8.57661 -0.547936 -1.60538 12.2376 -2.63746 6.22452 -41.6762 -4.29358 -0.0 0.0 0.0 -0.0 0.0 0.0 -1.0475e-14 -1.66922e-13 8.73682e-15 69.2278 1.52622 -2.1288 -8.49532 -3.51107 14.7711 -0.0492822 7.10086 1.00197 1.27935e-10 -1.12607e-09 2.71807e-09 2.43388e-10 -1.9542e-09 4.69638e-09 1.27939e-10 -1.12606e-09 2.71806e-09 7.73091 5.47488 0.417314 1.27933e-10 -1.12606e-09 2.71807e-09 2.90554 0.965183 0.102902 1.27944e-10 -1.12606e-09 2.71807e-09 10.2786 0.731801 0.0259123 1.27934e-10 -1.12607e-09 2.71807e-09 2.22167 -0.733487 -0.20892 -1.0586e-14 -1.66918e-13 8.34663e-15 -64.3449 4.02406 -2.25812 4.93302 -1.66634 -8.52302 0.373253 19.268 -2.78917 2.04515e-09 -1.14285e-10 -2.15954e-09 3.49227e-09 -2.1305e-10 -3.76711e-09 2.04515e-09 -1.14285e-10 -2.15953e-09 -7.73091 5.47488 -0.417314 2.04515e-09 -1.14287e-10 -2.15954e-09 -2.90554 0.965183 -0.102902 2.04514e-09 -1.14288e-10 -2.15954e-09 -10.2786 0.731801 -0.0259123 2.04515e-09 -1.14288e-10 -2.15955e-09 -2.22167 -0.733487 0.20892 -2.03217e-16 0.0 -3.88251e-19 1.57102 -24.2678 6.3238 0.00185027 8.66935 0.193588 -2.25464 -17.6301 -5.37181 2.03217e-16 0.0 3.88251e-19 -0.201597 -21.7983 -6.75575 0.0102028 5.27003 -0.0518963 0.849313 -2.79726 3.39736
53.1717 83.5031 185.087 179.735 -0.8709 -154.964 -4.98422 -28.4523 -1.17243 2.14269 10.4997 -0.673179 -1.83567 14.8585 -3.21418 6.33533 -50.6344 -6.06258 -0.0 0.0 0.0 -0.0 0.0 0.0 -1.67664e-15 -1.53465e-13 1.63003e-14 84.3808 1.41392 -2.64245 -10.0155 -4.15086 17.8306 -0.0978328 8.88596 1.25905 1.01847e-10 -1.14243e-09 2.79728e-09 1.98603e-10 -1.98289e-09 4.83409e-09 1.0185e-10 -1.14243e-09 2.79726e-09 7.73091 5.47488 0.417314 1.01844e-10 -1.14243e-09 2.79728e-09 2.90554 0.965183 0.102902 1.01855e-10 -1.14243e-09 2.79727e-09 10.2786 0.731801 0.0259123 1.01846e-10 -1.14243e-09 2.79728e-09 2.22167 -0.733487 -0.20892 -1.80223e-15 -1.53459e-13 1.59028e-14 -78.3232 4.99144 -2.6135 5.93176 -2.01342 -10.3638 0.71673 23.3162 -3.47273 2.0758e-09 -1.35845e-10 -2.2604e-09 3.54338e-09 -2.51378e-10 -3.94238e-09 2.0758e-09 -1.35846e-10 -2.26039e-09 -7.73091 5.47488 -0.417314 2.0758e-09 -1.35846e-10 -2.2604e-09 -2.90554 0.965183 -0.102902 2.07579e-09 -1.35848e-10 -2.26041e-09 -10.2786 0.731801 -0.0259123 2.0758e-09 -1.35848e-10 -2.26041e-09 -2.22167 -0.733487 0.20892 -2.03217e-16 0.0 -3.88251e-19 2.42554 -28.5679 8.09942 -0.00386823 10.1194 0.238469 -3.16265 -21.4565 -6.79401 2.03217e-16 0.0 3.88251e-19 -0.903139 -25.9134 -8.53267 0.0140486 6.6022 -0.0768378 1.04371 -4.16447 4.21511
53.1181 83.4973 184.922 179.616 -1.0616 -155.094 -5.42171 -30.5871 -1.25251 2.27521 11.3376 -0.715599 -1.98203 15.7757 -3.36992 6.2659 -53.9062 -6.72354 -0.0 0.0 0.0 -0.0 0.0 0.0 2.49895e-14 -3.38159e-14 3.28449e-14 90.2567 0.53591 -2.91848 -10.401 -4.27971 18.661 -0.131525 10.0079 1.42192 -3.59464e-11 -6.36603e-10 1.6762e-09 -4.97292e-11 -1.1059e-09 2.89921e-09 -3.59445e-11 -6.366e-10 1.67619e-09 7.73091 5.47488 0.417314 -3.59493e-11 -6.36601e-10 1.6762e-09 2.90554 0.965183 0.102902 -3.594e-11 -6.36601e-10 1.6762e-09 10.2786 0.731801 0.0259123 -3.59481e-11 -6.36603e-10 1.67621e-09 2.22167 -0.733487 -0.20892 2.48263e-14 -3.38118e-14 3.24695e-14 -83.6465 5.646 -2.47637 6.31188 -2.14496 -11.0768 0.849066 24.4951 -3.6861 1.14432e-09 -1.35119e-10 -1.46158e-09 1.94954e-09 -2.45432e-10 -2.54741e-09 1.14432e-09 -1.3512e-10 -1.46157e-09 -7.73091 5.47488 -0.417314 1.14432e-09 -1.3512e-10 -1.46158e-09 -2.90554 0.965183 -0.102902 1.14431e-09 -1.35121e-10 -1.46158e-09 -10.2786 0.731801 -0.0259123 1.14433e-09 -1.35121e-10 -1.46159e-09 -2.22167 -0.733487 0.20892 -2.03217e-16 0.0 -3.88251e-19 2.84667 -30.1916 9.00717 -0.00646336 10.6693 0.250911 -3.5065 -22.0111 -7.45167 2.03217e-16 0.0 3.88251e-19 -1.29573 -27.4798 -9.32621 0.0158283 7.07553 -0.0859989 1.14209 -4.68938 4.63145
53.0768 83.3894 184.904 179.775 -0.7011 -154.761 -5.38432 -30.5628 -1.19796 2.2287 11.3999 -0.697824 -2.09456 15.4785 -3.2156 6.53462 -53.1433 -6.17161 -0.0 0.0 0.0 -0.0 0.0 0.0 6.41812e-14 1.60466e-13 5.5638e-14 89.5029 -0.886773 -3.02662 -10.0077 -4.05916 17.8975 -0.148053 10.6557 1.51601 -2.52703e-10 2.37297e-10 -2.90997e-10 -4.4192e-10 4.09486e-10 -4.9672e-10 -2.52702e-10 2.373e-10 -2.91014e-10 7.73091 5.47488 0.417314 -2.52706e-10 2.37299e-10 -2.90997e-10 2.90554 0.965183 0.102902 -2.52699e-10 2.37299e-10 -2.90996e-10 10.2786 0.731801 0.0259123 -2.52706e-10 2.37298e-10 -2.90986e-10 2.22167 -0.733487 -0.20892 6.39646e-14 1.60468e-13 5.53056e-14 -82.8002 6.07165 -1.9872 6.26037 -2.12514 -10.9816 0.780667 23.6339 -3.53764 -4.65419e-10 -1.18616e-10 -2.85777e-11 -8.03936e-10 -2.08148e-10 -4.56023e-11 -4.65419e-10 -1.18616e-10 -2.85704e-11 -7.73091 5.47488 -0.417314 -4.65416e-10 -1.18616e-10 -2.85776e-11 -2.90554 0.965183 -0.102902 -4.65426e-10 -1.18616e-10 -2.85794e-11 -10.2786 0.731801 -0.0259123 -4.65415e-10 -1.18615e-10 -2.85826e-11 -2.22167 -0.733487 0.20892 -2.03217e-16 0.0 -3.88251e-19 2.79911 -29.9294 9.1981 -0.00569813 10.5762 0.239945 -3.33945 -20.2503 -7.51578 2.03217e-16 0.0 3.88251e-19 -1.31992 -27.2516 -9.3332 0.0155401 6.93581 -0.0838106 1.15165 -4.61475 4.75748
53.0644 83.398 184.823 179.816 -0.5827 -154.832 -5.15106 -29.6493 -1.10095 2.11685 11.139 -0.659396 -2.17404 14.7192 -2.95222 6.82625 -50.8148 -5.25358 -0.0 0.0 0.0 -0.0 0.0 0.0 1.00416e-13 3.43691e-13 7.53359e-14 86.0994 -2.45936 -3.08312 -9.31272 -3.7071 16.5427 -0.155796 11.0902 1.57888 -4.73286e-10 1.09314e-09 -2.21969e-09 -8.40169e-10 1.89368e-09 -3.82623e-09 -4.73286e-10 1.09314e-09 -2.21971e-09 7.73091 5.47488 0.417314 -4.7329e-10 1.09314e-09 -2.21969e-09 2.90554 0.965183 0.102902 -4.73285e-10 1.09314e-09 -2.21969e-09 10.2786 0.731801 0.0259123 -4.73292e-10 1.09314e-09 -2.21967e-09 2.22167 -0.733487 -0.20892 1.00158e-13 3.43691e-13 7.50513e-14 -79.5105 6.21277 -1.39444 5.99871 -2.02925 -10.4951 0.656873 22.1492 -3.28349 -2.04506e-09 -1.00494e-10 1.37393e-09 -3.50603e-09 -1.67979e-10 2.40322e-09 -2.04506e-09 -1.00492e-10 1.37393e-09 -7.73091 5.47488 -0.417314 -2.04505e-09 -1.00492e-10 1.37393e-09 -2.90554 0.965183 -0.102902 -2.04506e-09 -1.00492e-10 1.37393e-09 -10.2786 0.731801 -0.0259123 -2.04505e-09 -1.0049e-10 1.37392e-09 -2.22167 -0.733487 0.20892 -2.03217e-16 0.0 -3.88251e-19 2.5562 -28.9163 9.05671 -0.00415903 10.2268 0.220715 -2.99723 -17.7507 -7.35509 2.03217e-16 0.0 3.88251e-19 -1.17575 -26.3061 -8.99756 0.0141584 6.5638 -0.0772911 1.11974 -4.31048 4.73166
53.0466 83.3922 184.797 179.807 -0.5445 -154.775 -4.99902 -29.1166 -1.05322 2.05353 11.0068 -0.639962 -2.22937 14.2511 -2.77826 6.95627 -49.4025 -4.70799 -0.0 0.0 0.0 -0.0 0.0 0.0 1.18212e-13 4.3017e-13 8.2595e-14 84.0187 -3.7867 -3.20233 -8.81464 -3.45154 15.5966 -0.167114 11.5722 1.64907 -6.2256e-10 1.54479e-09 -3.22524e-09 -1.10668e-09 2.67708e-09 -5.56186e-09 -6.22561e-10 1.54479e-09 -3.22526e-09 7.73091 5.47488 0.417314 -6.22564e-10 1.54479e-09 -3.22524e-09 2.90554 0.965183 0.102902 -6.2256e-10 1.54479e-09 -3.22524e-09 10.2786 0.731801 0.0259123 -6.22567e-10 1.54479e-09 -3.22522e-09 2.22167 -0.733487 -0.20892 1.17952e-13 4.30168e-13 8.23466e-14 -77.4941 6.01424 -0.947716 5.74736 -1.93233 -10.0344 0.600248 21.4594 -3.16694 -2.88623e-09 -9.49109e-11 2.08127e-09 -4.94571e-09 -1.53376e-10 3.63924e-09 -2.88623e-09 -9.49089e-11 2.08127e-09 -7.73091 5.47488 -0.417314 -2.88622e-09 -9.49084e-11 2.08127e-09 -2.90554 0.965183 -0.102902 -2.88624e-09 -9.49079e-11 2.08127e-09 -10.2786 0.731801 -0.0259123 -2.88622e-09 -9.49062e-11 2.08126e-09 -2.22167 -0.733487 0.20892 -2.03217e-16 0.0 -3.88251e-19 2.42144 -28.2802 8.98226 -0.00421414 10.0075 0.208324 -2.79421 -16.0886 -7.3095 2.03217e-16 0.0 3.88251e-19 -1.07666 -25.7172 -8.76953 0.0126146 6.34027 -0.0734511 1.09865 -4.14591 4.69288
